<svg width="32" height="33" viewBox="0 0 32 33" fill="none" xmlns="http://www.w3.org/2000/svg">
<path d="M17.1923 17.3107C17.1923 17.6386 17.0667 17.9531 16.8431 18.185C16.6194 18.4169 16.3162 18.5472 16 18.5472C15.6837 18.5472 15.3805 18.4169 15.1569 18.185C14.9333 17.9531 14.8077 17.6386 14.8077 17.3107C14.8077 16.9828 14.9333 16.6683 15.1569 16.4364C15.3805 16.2045 15.6837 16.0742 16 16.0742C16.3162 16.0742 16.6194 16.2045 16.8431 16.4364C17.0667 16.6683 17.1923 16.9828 17.1923 17.3107ZM8.84612 22.2566C9.16234 22.2566 9.4656 22.1263 9.6892 21.8944C9.91281 21.6625 10.0384 21.348 10.0384 21.0201C10.0384 20.6922 9.91281 20.3777 9.6892 20.1458C9.4656 19.9139 9.16234 19.7836 8.84612 19.7836C8.5299 19.7836 8.22663 19.9139 8.00303 20.1458C7.77943 20.3777 7.65381 20.6922 7.65381 21.0201C7.65381 21.348 7.77943 21.6625 8.00303 21.8944C8.22663 22.1263 8.5299 22.2566 8.84612 22.2566ZM10.0384 24.7295C10.0384 25.0574 9.91281 25.3719 9.6892 25.6038C9.4656 25.8357 9.16234 25.966 8.84612 25.966C8.5299 25.966 8.22663 25.8357 8.00303 25.6038C7.77943 25.3719 7.65381 25.0574 7.65381 24.7295C7.65381 24.4016 7.77943 24.0871 8.00303 23.8552C8.22663 23.6233 8.5299 23.493 8.84612 23.493C9.16234 23.493 9.4656 23.6233 9.6892 23.8552C9.91281 24.0871 10.0384 24.4016 10.0384 24.7295ZM12.423 22.2566C12.7393 22.2566 13.0425 22.1263 13.2661 21.8944C13.4897 21.6625 13.6153 21.348 13.6153 21.0201C13.6153 20.6922 13.4897 20.3777 13.2661 20.1458C13.0425 19.9139 12.7393 19.7836 12.423 19.7836C12.1068 19.7836 11.8036 19.9139 11.58 20.1458C11.3563 20.3777 11.2307 20.6922 11.2307 21.0201C11.2307 21.348 11.3563 21.6625 11.58 21.8944C11.8036 22.1263 12.1068 22.2566 12.423 22.2566ZM13.6153 24.7295C13.6153 25.0574 13.4897 25.3719 13.2661 25.6038C13.0425 25.8357 12.7393 25.966 12.423 25.966C12.1068 25.966 11.8036 25.8357 11.58 25.6038C11.3563 25.3719 11.2307 25.0574 11.2307 24.7295C11.2307 24.4016 11.3563 24.0871 11.58 23.8552C11.8036 23.6233 12.1068 23.493 12.423 23.493C12.7393 23.493 13.0425 23.6233 13.2661 23.8552C13.4897 24.0871 13.6153 24.4016 13.6153 24.7295ZM16 22.2566C16.3162 22.2566 16.6194 22.1263 16.8431 21.8944C17.0667 21.6625 17.1923 21.348 17.1923 21.0201C17.1923 20.6922 17.0667 20.3777 16.8431 20.1458C16.6194 19.9139 16.3162 19.7836 16 19.7836C15.6837 19.7836 15.3805 19.9139 15.1569 20.1458C14.9333 20.3777 14.8077 20.6922 14.8077 21.0201C14.8077 21.348 14.9333 21.6625 15.1569 21.8944C15.3805 22.1263 15.6837 22.2566 16 22.2566ZM17.1923 24.7295C17.1923 25.0574 17.0667 25.3719 16.8431 25.6038C16.6194 25.8357 16.3162 25.966 16 25.966C15.6837 25.966 15.3805 25.8357 15.1569 25.6038C14.9333 25.3719 14.8077 25.0574 14.8077 24.7295C14.8077 24.4016 14.9333 24.0871 15.1569 23.8552C15.3805 23.6233 15.6837 23.493 16 23.493C16.3162 23.493 16.6194 23.6233 16.8431 23.8552C17.0667 24.0871 17.1923 24.4016 17.1923 24.7295ZM19.5769 22.2566C19.8931 22.2566 20.1964 22.1263 20.42 21.8944C20.6436 21.6625 20.7692 21.348 20.7692 21.0201C20.7692 20.6922 20.6436 20.3777 20.42 20.1458C20.1964 19.9139 19.8931 19.7836 19.5769 19.7836C19.2607 19.7836 18.9574 19.9139 18.7338 20.1458C18.5102 20.3777 18.3846 20.6922 18.3846 21.0201C18.3846 21.348 18.5102 21.6625 18.7338 21.8944C18.9574 22.1263 19.2607 22.2566 19.5769 22.2566ZM20.7692 24.7295C20.7692 25.0574 20.6436 25.3719 20.42 25.6038C20.1964 25.8357 19.8931 25.966 19.5769 25.966C19.2607 25.966 18.9574 25.8357 18.7338 25.6038C18.5102 25.3719 18.3846 25.0574 18.3846 24.7295C18.3846 24.4016 18.5102 24.0871 18.7338 23.8552C18.9574 23.6233 19.2607 23.493 19.5769 23.493C19.8931 23.493 20.1964 23.6233 20.42 23.8552C20.6436 24.0871 20.7692 24.4016 20.7692 24.7295ZM23.1538 22.2566C23.47 22.2566 23.7733 22.1263 23.9969 21.8944C24.2205 21.6625 24.3461 21.348 24.3461 21.0201C24.3461 20.6922 24.2205 20.3777 23.9969 20.1458C23.7733 19.9139 23.47 19.7836 23.1538 19.7836C22.8376 19.7836 22.5343 19.9139 22.3107 20.1458C22.0871 20.3777 21.9615 20.6922 21.9615 21.0201C21.9615 21.348 22.0871 21.6625 22.3107 21.8944C22.5343 22.1263 22.8376 22.2566 23.1538 22.2566ZM20.7692 17.3107C20.7692 17.6386 20.6436 17.9531 20.42 18.185C20.1964 18.4169 19.8931 18.5472 19.5769 18.5472C19.2607 18.5472 18.9574 18.4169 18.7338 18.185C18.5102 17.9531 18.3846 17.6386 18.3846 17.3107C18.3846 16.9828 18.5102 16.6683 18.7338 16.4364C18.9574 16.2045 19.2607 16.0742 19.5769 16.0742C19.8931 16.0742 20.1964 16.2045 20.42 16.4364C20.6436 16.6683 20.7692 16.9828 20.7692 17.3107ZM23.1538 18.5472C23.47 18.5472 23.7733 18.4169 23.9969 18.185C24.2205 17.9531 24.3461 17.6386 24.3461 17.3107C24.3461 16.9828 24.2205 16.6683 23.9969 16.4364C23.7733 16.2045 23.47 16.0742 23.1538 16.0742C22.8376 16.0742 22.5343 16.2045 22.3107 16.4364C22.0871 16.6683 21.9615 16.9828 21.9615 17.3107C21.9615 17.6386 22.0871 17.9531 22.3107 18.185C22.5343 18.4169 22.8376 18.5472 23.1538 18.5472Z" fill="black"/>
<path fill-rule="evenodd" clip-rule="evenodd" d="M7.65385 0C7.97007 0 8.27333 0.13027 8.49694 0.362153C8.72054 0.594035 8.84615 0.908536 8.84615 1.23647V3.7094H23.1538V1.23647C23.1538 0.908536 23.2795 0.594035 23.5031 0.362153C23.7267 0.13027 24.0299 0 24.3462 0C24.6624 0 24.9656 0.13027 25.1892 0.362153C25.4128 0.594035 25.5385 0.908536 25.5385 1.23647V3.7094H26.7308C27.9956 3.7094 29.2087 4.23048 30.1031 5.15801C30.9975 6.08554 31.5 7.34354 31.5 8.65527V27.2023C31.5 28.514 30.9975 29.772 30.1031 30.6995C29.2087 31.6271 27.9956 32.1481 26.7308 32.1481H5.26923C4.00435 32.1481 2.79128 31.6271 1.89688 30.6995C1.00247 29.772 0.5 28.514 0.5 27.2023V8.65527C0.5 7.34354 1.00247 6.08554 1.89688 5.15801C2.79128 4.23048 4.00435 3.7094 5.26923 3.7094H6.46154V1.23647C6.46154 0.908536 6.58716 0.594035 6.81076 0.362153C7.03436 0.13027 7.33763 0 7.65385 0ZM29.1154 14.8376C29.1154 14.1817 28.8641 13.5527 28.4169 13.089C27.9697 12.6252 27.3632 12.3647 26.7308 12.3647H5.26923C4.63679 12.3647 4.03025 12.6252 3.58305 13.089C3.13585 13.5527 2.88462 14.1817 2.88462 14.8376V27.2023C2.88462 27.8581 3.13585 28.4871 3.58305 28.9509C4.03025 29.4147 4.63679 29.6752 5.26923 29.6752H26.7308C27.3632 29.6752 27.9697 29.4147 28.4169 28.9509C28.8641 28.4871 29.1154 27.8581 29.1154 27.2023V14.8376Z" fill="black"/>
</svg>
