<svg width="24" height="24" viewBox="0 0 24 24" fill="none" xmlns="http://www.w3.org/2000/svg">
<path d="M0.326395 20.7495L5.00017 16.0766C5.21113 15.8656 5.49709 15.7485 5.79711 15.7485H6.56123C5.26738 14.0939 4.49857 12.0129 4.49857 9.74905C4.49857 4.36364 8.86296 0 14.2493 0C19.6356 0 24 4.36364 24 9.74905C24 15.1345 19.6356 19.4981 14.2493 19.4981C11.9851 19.4981 9.90366 18.7294 8.24885 17.4358V18.1998C8.24885 18.4998 8.13165 18.7857 7.9207 18.9966L3.24692 23.6696C2.80626 24.1101 2.09371 24.1101 1.65774 23.6696L0.331083 22.3431C-0.109575 21.9025 -0.109575 21.1901 0.326395 20.7495ZM14.2493 15.7485C17.5636 15.7485 20.2497 13.0675 20.2497 9.74905C20.2497 6.43531 17.5683 3.74963 14.2493 3.74963C10.935 3.74963 8.24885 6.43062 8.24885 9.74905C8.24885 13.0628 10.9303 15.7485 14.2493 15.7485Z" fill="black"/>
</svg>
