<svg width="35" height="23" viewBox="0 0 35 23" fill="none" xmlns="http://www.w3.org/2000/svg">
<path d="M25.991 11.4775C25.991 12.2861 25.3139 12.9195 24.5465 12.9195H23.1021L23.1337 20.116C23.1337 20.2373 23.1247 20.3586 23.1111 20.4799V21.2031C23.1111 22.1959 22.3031 23 21.3056 23H20.5833C20.5337 23 20.484 23 20.4344 22.9955C20.3712 23 20.308 23 20.2448 23H18.7778H17.6944C16.6969 23 15.8889 22.1959 15.8889 21.2031V20.125V17.25C15.8889 16.4549 15.2434 15.8125 14.4444 15.8125H11.5556C10.7566 15.8125 10.1111 16.4549 10.1111 17.25V20.125V21.2031C10.1111 22.1959 9.30312 23 8.30556 23H7.22222H5.78229C5.71458 23 5.64687 22.9955 5.57917 22.991C5.525 22.9955 5.47083 23 5.41667 23H4.69444C3.69687 23 2.88889 22.1959 2.88889 21.2031V16.1719C2.88889 16.1314 2.88889 16.0865 2.8934 16.0461V12.9195H1.44444C0.631944 12.9195 0 12.2906 0 11.4775C0 11.0732 0.135417 10.7139 0.451389 10.3994L12.025 0.359375C12.341 0.0449219 12.7021 0 13.0181 0C13.334 0 13.6951 0.0898438 13.966 0.314453L25.4944 10.3994C25.8556 10.7139 26.0361 11.0732 25.991 11.4775Z" fill="black"/>
<path d="M25.4616 0.265039L19.4911 7.60977C19.3344 7.79844 19.25 8.05 19.25 8.30605C19.25 8.88105 19.6638 9.34375 20.1781 9.34375H21.1786L18.2295 12.641C18.0607 12.8297 17.9643 13.0902 17.9643 13.3598C17.9643 13.9213 18.3701 14.375 18.8723 14.375H20.2143L17.217 18.3955C17.0763 18.5842 17 18.8223 17 19.0693C17 19.6533 17.4219 20.125 17.9442 20.125H24.7143V21.5625C24.7143 22.3576 25.2888 23 26 23C26.7112 23 27.2857 22.3576 27.2857 21.5625V20.125H34.0558C34.5781 20.125 35 19.6533 35 19.0693C35 18.8223 34.9237 18.5842 34.783 18.3955L31.7857 14.375H33.1277C33.6299 14.375 34.0357 13.9213 34.0357 13.3598C34.0357 13.0902 33.9393 12.8297 33.7705 12.641L30.8214 9.34375H31.8219C32.3321 9.34375 32.75 8.88105 32.75 8.30605C32.75 8.05 32.6656 7.79844 32.5089 7.60977L26.5384 0.265039C26.4018 0.0943359 26.2049 0 26 0C25.7951 0 25.5982 0.0943359 25.4616 0.265039Z" fill="black"/>
</svg>
