<svg width="18" height="16" viewBox="0 0 18 16" fill="none" xmlns="http://www.w3.org/2000/svg">
<path d="M5.66663 8.83333C4.11663 8.83333 2.82496 9.9 2.44996 11.3333H0.666626V13H2.44996C2.82496 14.4333 4.11663 15.5 5.66663 15.5C7.21663 15.5 8.50829 14.4333 8.88329 13H17.3333V11.3333H8.88329C8.50829 9.9 7.21663 8.83333 5.66663 8.83333ZM5.66663 13.8333C4.74996 13.8333 3.99996 13.0833 3.99996 12.1667C3.99996 11.25 4.74996 10.5 5.66663 10.5C6.58329 10.5 7.33329 11.25 7.33329 12.1667C7.33329 13.0833 6.58329 13.8333 5.66663 13.8333ZM15.55 3C15.175 1.56667 13.8833 0.5 12.3333 0.5C10.7833 0.5 9.49163 1.56667 9.11663 3H0.666626V4.66667H9.11663C9.49163 6.1 10.7833 7.16667 12.3333 7.16667C13.8833 7.16667 15.175 6.1 15.55 4.66667H17.3333V3H15.55ZM12.3333 5.5C11.4166 5.5 10.6666 4.75 10.6666 3.83333C10.6666 2.91667 11.4166 2.16667 12.3333 2.16667C13.25 2.16667 14 2.91667 14 3.83333C14 4.75 13.25 5.5 12.3333 5.5Z" fill="#212121"/>
</svg>
