<svg width="20" height="16" viewBox="0 0 20 16" fill="none" xmlns="http://www.w3.org/2000/svg">
<path d="M3.88367 4.10452L6.91465 5.18844C7.95921 2.81128 9.47365 0.981921 11.0406 0.124525C8.1946 -0.0180338 5.43701 1.20203 3.66342 3.38385C3.46484 3.62874 3.58446 3.99753 3.88367 4.10452ZM7.80931 5.50854L14.8882 8.03991C15.9497 4.5013 15.4433 1.28628 13.6228 0.635581C13.4031 0.556867 13.1737 0.518968 12.9374 0.518968C11.2152 0.51926 9.12992 2.53549 7.80931 5.50854ZM15.9381 1.87722C16.1227 2.35241 16.2596 2.88592 16.3299 3.48618C16.5003 4.94063 16.2878 6.64143 15.7674 8.35418L18.8135 9.44335C19.113 9.55034 19.4461 9.34335 19.4538 9.03024C19.5227 6.24057 18.2098 3.56577 15.9381 1.87722ZM17.0815 13.1735H9.98896L11.9166 7.97023L10.1314 7.33178L7.96752 13.1732H0.933736C0.671335 13.1732 0.458801 13.3819 0.458801 13.6399V14.5731C0.458801 14.8309 0.671335 15.0399 0.933736 15.0399H17.0815C17.3439 15.0399 17.5564 14.8309 17.5564 14.5731V13.6399C17.5564 13.3822 17.3439 13.1735 17.0815 13.1735Z" fill="white"/>
</svg>
