<svg width="14" height="17" viewBox="0 0 14 17" fill="none" xmlns="http://www.w3.org/2000/svg">
<path d="M13.5167 12.5234L10.6622 9.5337H11.7566C12.0785 9.5337 12.3633 9.3685 12.4991 9.1022C12.6349 8.83657 12.5902 8.53194 12.3819 8.3076L9.59021 5.30464H10.6225C10.9476 5.30464 11.2406 5.12788 11.3678 4.85497C11.4936 4.58636 11.4343 4.27381 11.2163 4.05938L7.27626 0.177895C7.0608 -0.0352098 6.65882 -0.0352098 6.443 0.177895L2.50256 4.05938C2.2846 4.27381 2.22564 4.58636 2.35106 4.85497C2.47826 5.12788 2.77162 5.30464 3.09677 5.30464H4.12905L1.33701 8.30826C1.12941 8.53227 1.08475 8.83657 1.22017 9.10253C1.35595 9.3685 1.64037 9.5337 1.96266 9.5337H3.05711L0.202541 12.5234C-0.0118461 12.7478 -0.0604406 13.0551 0.0753381 13.325C0.20933 13.591 0.504113 13.7628 0.826052 13.7628H5.71623V14.5706L4.63393 16.1697C4.44384 16.5212 4.7204 16.9349 5.14525 16.9349H8.57402C8.99886 16.9349 9.27542 16.5212 9.08533 16.1697L8.00303 14.5706V13.7628H12.8932C13.2151 13.7628 13.5099 13.591 13.6439 13.325C13.7797 13.0551 13.7311 12.7478 13.5167 12.5234Z" fill="white"/>
</svg>
