<svg width="21" height="21" viewBox="0 0 21 21" fill="none" xmlns="http://www.w3.org/2000/svg">
<path d="M10.5 11.8125C13.7607 11.8125 16.4062 9.16699 16.4062 5.90625C16.4062 2.64551 13.7607 0 10.5 0C7.23926 0 4.59375 2.64551 4.59375 5.90625C4.59375 9.16699 7.23926 11.8125 10.5 11.8125ZM15.75 13.125H13.49C12.5795 13.5434 11.5664 13.7812 10.5 13.7812C9.43359 13.7812 8.42461 13.5434 7.50996 13.125H5.25C2.3502 13.125 0 15.4752 0 18.375V19.0312C0 20.1182 0.881836 21 1.96875 21H19.0312C20.1182 21 21 20.1182 21 19.0312V18.375C21 15.4752 18.6498 13.125 15.75 13.125Z" fill="black"/>
</svg>
