<svg width="19" height="19" viewBox="0 0 19 19" fill="none" xmlns="http://www.w3.org/2000/svg">
<path d="M15.3691 6.921C15.407 7.20822 15.6567 7.42303 15.9535 7.42303H16.5517C16.9045 7.42303 17.1854 7.12321 17.1453 6.78107C16.9843 5.41283 16.3142 4.17369 15.2853 3.382C14.6408 2.88627 14.2159 2.09633 14.0987 1.20773C14.0612 0.920858 13.8111 0.706055 13.5146 0.706055H12.9165C12.5636 0.706055 12.2824 1.00587 12.3228 1.34802C12.4839 2.71625 13.154 3.95539 14.1829 4.74708C14.827 5.24281 15.2522 6.03275 15.3691 6.921ZM11.3618 6.921C11.3997 7.20822 11.6494 7.42303 11.9462 7.42303H12.5443C12.8972 7.42303 13.1781 7.12321 13.138 6.78107C12.977 5.41283 12.3069 4.17369 11.278 3.382C10.6335 2.88627 10.2086 2.09633 10.0914 1.20773C10.0539 0.920858 9.8038 0.706055 9.50733 0.706055H8.9092C8.55634 0.706055 8.27508 1.00587 8.31553 1.34802C8.47656 2.71625 9.14667 3.95539 10.1756 4.74708C10.8197 5.24281 11.2449 6.03275 11.3618 6.921ZM17.8102 9.66202H9.4988L5.38277 6.75133C4.97174 6.46064 4.47177 6.30351 3.95796 6.30353H2.3747C1.06305 6.30353 0 7.30583 0 8.54252V16.379C0 17.6157 1.06305 18.618 2.3747 18.618H16.6229C17.9345 18.618 18.9976 17.6157 18.9976 16.379V10.7815C18.9976 10.1633 18.4659 9.66202 17.8102 9.66202ZM4.7494 16.0991C4.7494 16.2537 4.61656 16.379 4.45256 16.379H3.85889C3.69488 16.379 3.56205 16.2537 3.56205 16.0991V12.1809C3.56205 12.0263 3.69488 11.901 3.85889 11.901H4.45256C4.61656 11.901 4.7494 12.0263 4.7494 12.1809V16.0991ZM8.31145 16.0991C8.31145 16.2537 8.17861 16.379 8.01461 16.379H7.42093C7.25693 16.379 7.1241 16.2537 7.1241 16.0991V12.1809C7.1241 12.0263 7.25693 11.901 7.42093 11.901H8.01461C8.17861 11.901 8.31145 12.0263 8.31145 12.1809V16.0991ZM11.8735 16.0991C11.8735 16.2537 11.7407 16.379 11.5767 16.379H10.983C10.819 16.379 10.6861 16.2537 10.6861 16.0991V12.1809C10.6861 12.0263 10.819 11.901 10.983 11.901H11.5767C11.7407 11.901 11.8735 12.0263 11.8735 12.1809V16.0991ZM15.4355 16.0991C15.4355 16.2537 15.3027 16.379 15.1387 16.379H14.545C14.381 16.379 14.2482 16.2537 14.2482 16.0991V12.1809C14.2482 12.0263 14.381 11.901 14.545 11.901H15.1387C15.3027 11.901 15.4355 12.0263 15.4355 12.1809V16.0991ZM2.3747 5.18404C3.68635 5.18404 4.7494 4.18174 4.7494 2.94505C4.7494 1.70835 3.68635 0.706055 2.3747 0.706055C1.06305 0.706055 0 1.70835 0 2.94505C0 4.18174 1.06305 5.18404 2.3747 5.18404Z" fill="#102C57"/>
</svg>
