<svg width="14" height="17" viewBox="0 0 14 17" fill="none" xmlns="http://www.w3.org/2000/svg">
<path d="M13.5701 12.5234L10.7155 9.5337H11.8099C12.1319 9.5337 12.4167 9.3685 12.5524 9.1022C12.6882 8.83657 12.6436 8.53194 12.4352 8.3076L9.64356 5.30464H10.6758C11.001 5.30464 11.294 5.12788 11.4212 4.85497C11.547 4.58636 11.4876 4.27381 11.2697 4.05938L7.3296 0.177895C7.11414 -0.0352098 6.71217 -0.0352098 6.49635 0.177895L2.55591 4.05938C2.33795 4.27381 2.27899 4.58636 2.40441 4.85497C2.53161 5.12788 2.82496 5.30464 3.15012 5.30464H4.18239L1.39035 8.30826C1.18275 8.53227 1.13809 8.83657 1.27351 9.10253C1.40929 9.3685 1.69371 9.5337 2.01601 9.5337H3.11046L0.255886 12.5234C0.0414986 12.7478 -0.00709588 13.0551 0.128683 13.325C0.262675 13.591 0.557458 13.7628 0.879396 13.7628H5.76958V14.5706L4.68728 16.1697C4.49719 16.5212 4.77375 16.9349 5.19859 16.9349H8.62736C9.05221 16.9349 9.32877 16.5212 9.13867 16.1697L8.05638 14.5706V13.7628H12.9466C13.2685 13.7628 13.5633 13.591 13.6973 13.325C13.833 13.0551 13.7845 12.7478 13.5701 12.5234Z" fill="#102C57"/>
</svg>
