<svg width="27" height="19" viewBox="0 0 27 19" fill="none" xmlns="http://www.w3.org/2000/svg">
<path d="M25.7259 15.5331H25.0663C23.9927 15.5331 23.178 15.2058 22.7538 14.8373C22.3869 14.5181 21.9433 14.2892 21.444 14.2892H20.772C20.2728 14.2892 19.8291 14.5181 19.4622 14.8373C19.0388 15.2058 18.2242 15.5331 17.1506 15.5331C16.077 15.5331 15.2624 15.2058 14.8382 14.8373C14.4712 14.5181 14.0276 14.2892 13.5284 14.2892H12.8564C12.3571 14.2892 11.9135 14.5181 11.5466 14.8373C11.1232 15.2058 10.3085 15.5331 9.23494 15.5331C8.16138 15.5331 7.34672 15.2058 6.92249 14.8373C6.55557 14.5181 6.11196 14.2892 5.6127 14.2892H4.94069C4.44143 14.2892 3.99782 14.5181 3.6309 14.8373C3.20749 15.2058 2.39284 15.5331 1.31928 15.5331H0.659639C0.295188 15.5331 0 15.8114 0 16.155V17.3989C0 17.7425 0.295188 18.0208 0.659639 18.0208H1.31928C2.91148 18.0208 4.31733 17.547 5.27711 16.7832C6.23688 17.5474 7.64274 18.0208 9.23494 18.0208C10.8271 18.0208 12.233 17.547 13.1928 16.7832C14.1525 17.5474 15.5584 18.0208 17.1506 18.0208C18.7428 18.0208 20.1487 17.547 21.1084 16.7832C22.0682 17.5474 23.4741 18.0208 25.0663 18.0208H25.7259C26.0904 18.0208 26.3855 17.7425 26.3855 17.3989V16.155C26.3855 15.8114 26.0904 15.5331 25.7259 15.5331ZM9.23494 14.2892V10.5575H17.1506V14.2892C17.9389 14.2892 18.4229 14.0497 18.5684 13.923C18.9465 13.5941 19.36 13.3656 19.7892 13.2206V4.3381C19.7892 3.65241 20.3812 3.09421 21.1084 3.09421C21.8357 3.09421 22.4277 3.65241 22.4277 4.3381V4.96004C22.4277 5.30366 22.7229 5.58198 23.0873 5.58198H24.4066C24.7711 5.58198 25.0663 5.30366 25.0663 4.96004V4.3381C25.0663 2.28025 23.291 0.606445 21.1084 0.606445C18.9259 0.606445 17.1506 2.28025 17.1506 4.3381V8.06975H9.23494V4.3381C9.23494 3.65241 9.82697 3.09421 10.5542 3.09421C11.2815 3.09421 11.8735 3.65241 11.8735 4.3381V4.96004C11.8735 5.30366 12.1687 5.58198 12.5331 5.58198H13.8524C14.2169 5.58198 14.512 5.30366 14.512 4.96004V4.3381C14.512 2.28025 12.7368 0.606445 10.5542 0.606445C8.37164 0.606445 6.59639 2.28025 6.59639 4.3381V13.2202C7.02556 13.3652 7.43907 13.5941 7.81713 13.9226C7.96266 14.0497 8.44667 14.2892 9.23494 14.2892Z" fill="#102C57"/>
</svg>
