<svg width="20" height="16" viewBox="0 0 20 16" fill="none" xmlns="http://www.w3.org/2000/svg">
<path d="M3.54401 4.10452L6.57499 5.18844C7.61955 2.81128 9.13399 0.981921 10.701 0.124525C7.85494 -0.0180338 5.09735 1.20203 3.32376 3.38385C3.12518 3.62874 3.2448 3.99753 3.54401 4.10452ZM7.46965 5.50854L14.5485 8.03991C15.61 4.5013 15.1036 1.28628 13.2831 0.635581C13.0635 0.556867 12.834 0.518968 12.5978 0.518968C10.8755 0.51926 8.79026 2.53549 7.46965 5.50854ZM15.5984 1.87722C15.7831 2.35241 15.9199 2.88592 15.9903 3.48618C16.1607 4.94063 15.9481 6.64143 15.4278 8.35418L18.4739 9.44335C18.7734 9.55034 19.1064 9.34335 19.1142 9.03024C19.183 6.24057 17.8701 3.56577 15.5984 1.87722ZM16.7419 13.1735H9.6493L11.5769 7.97023L9.79178 7.33178L7.62786 13.1732H0.594075C0.331674 13.1732 0.119141 13.3819 0.119141 13.6399V14.5731C0.119141 14.8309 0.331674 15.0399 0.594075 15.0399H16.7419C17.0043 15.0399 17.2168 14.8309 17.2168 14.5731V13.6399C17.2168 13.3822 17.0043 13.1735 16.7419 13.1735Z" fill="#102C57"/>
</svg>
