<svg width="180" height="136" viewBox="0 0 180 136" fill="none" xmlns="http://www.w3.org/2000/svg">
<path d="M150 116.598V121.421C150 129.412 143.284 135.89 135 135.89H15C6.71562 135.89 0 129.412 0 121.421V44.2499C0 36.2585 6.71562 29.7804 15 29.7804H20V92.4817C20 105.779 31.215 116.598 45 116.598H150ZM180 92.4817V15.3108C180 7.31944 173.284 0.841309 165 0.841309H45C36.7156 0.841309 30 7.31944 30 15.3108V92.4817C30 100.473 36.7156 106.951 45 106.951H165C173.284 106.951 180 100.473 180 92.4817ZM80 29.7804C80 37.7718 73.2844 44.2499 65 44.2499C56.7156 44.2499 50 37.7718 50 29.7804C50 21.789 56.7156 15.3108 65 15.3108C73.2844 15.3108 80 21.789 80 29.7804ZM50 73.189L67.3484 56.4541C68.8128 55.0415 71.1872 55.0415 72.6519 56.4541L85 68.3658L127.348 27.515C128.813 26.1024 131.187 26.1024 132.652 27.515L160 53.8963V87.6585H50V73.189Z" fill="#102C57"/>
</svg>
