<svg width="49" height="29" viewBox="0 0 49 29" fill="none" xmlns="http://www.w3.org/2000/svg">
<path d="M0 0H48.91V28.04H0V0Z" fill="#012169"/>
<path d="M48.91 0V3.505L30.7598 14.02L48.91 24.2612V28.04H42.5097L24.2639 17.7441L6.49586 28.04H0V24.3159L17.7681 14.0748L0 4.05266V0H5.9227L24.2639 10.2959L42.032 0H48.91Z" fill="white"/>
<path d="M17.577 17.7441L18.6278 19.6061L4.01215 28.04H0V27.8757L17.577 17.7441ZM29.4224 17.0869L34.5809 17.525L48.91 25.5755V28.04L29.4224 17.0869ZM48.91 0L30.5688 10.7341L30.1866 8.32438L44.5157 0H48.91ZM0 0.0547656L18.4368 10.4055L12.8007 9.96734L0 2.68352V0.0547656Z" fill="#C8102E"/>
<path d="M16.8128 0V28.04H32.0972V0H16.8128ZM0 9.63875V18.4013H48.91V9.63875H0Z" fill="white"/>
<path d="M0 11.3913V16.6488H48.91V11.3913H0ZM19.8697 0V28.04H29.0403V0H19.8697Z" fill="#C8102E"/>
</svg>
